<svg width="192" height="192" viewBox="0 0 192 192" fill="none" xmlns="http://www.w3.org/2000/svg">
<rect width="192" height="192" fill="#D9D9D9"/>
<path d="M34.94 64.48C41.14 64.48 44.24 62.26 44.24 57.82C44.24 54.58 43.48 52.54 41.96 51.7C40.48 50.82 37.12 50.38 31.88 50.38L31.64 64.36C33 64.44 34.1 64.48 34.94 64.48ZM34.58 45.46C37.66 45.38 39.84 44.98 41.12 44.26C42.4 43.54 43.04 42.04 43.04 39.76C43.04 37.44 42.3 35.9 40.82 35.14C39.34 34.38 37.1 34 34.1 34H31.94C31.86 39.04 31.82 42.84 31.82 45.4L34.58 45.46ZM34.64 70.06H19.82L19.28 66.76C21.36 65.92 23.04 65.34 24.32 65.02C24.32 64.9 24.14 54.32 23.78 33.28C23.14 33.12 21.48 32.6 18.8 31.72L19.28 28.06H35.9C40.66 28.06 44.36 28.98 47 30.82C49.64 32.66 50.96 35.32 50.96 38.8C50.96 40.48 50.5 42.3 49.58 44.26C48.7 46.22 47.68 47.38 46.52 47.74C48.28 48.7 49.66 50.04 50.66 51.76C51.66 53.48 52.16 55.46 52.16 57.7C52.16 61.38 50.66 64.36 47.66 66.64C44.66 68.92 40.32 70.06 34.64 70.06ZM74.593 64.36C81.233 64.36 84.553 59.26 84.553 49.06C84.553 38.86 81.233 33.76 74.593 33.76C71.713 33.76 69.193 34.2 67.033 35.08C65.193 38.92 64.273 43.38 64.273 48.46C64.273 53.5 65.033 57.42 66.553 60.22C68.073 62.98 70.753 64.36 74.593 64.36ZM74.593 27.28C81.273 27.28 85.973 29.04 88.693 32.56C91.413 36.04 92.773 41.38 92.773 48.58C92.773 53.1 92.193 56.96 91.033 60.16C89.873 63.36 87.913 65.92 85.153 67.84C82.393 69.76 78.873 70.72 74.593 70.72C68.073 70.72 63.333 68.9 60.373 65.26C57.453 61.62 55.993 56.32 55.993 49.36C55.993 34.64 62.193 27.28 74.593 27.28ZM113.441 64.36C120.081 64.36 123.401 59.26 123.401 49.06C123.401 38.86 120.081 33.76 113.441 33.76C110.561 33.76 108.041 34.2 105.881 35.08C104.041 38.92 103.121 43.38 103.121 48.46C103.121 53.5 103.881 57.42 105.401 60.22C106.921 62.98 109.601 64.36 113.441 64.36ZM113.441 27.28C120.121 27.28 124.821 29.04 127.541 32.56C130.261 36.04 131.621 41.38 131.621 48.58C131.621 53.1 131.041 56.96 129.881 60.16C128.721 63.36 126.761 65.92 124.001 67.84C121.241 69.76 117.721 70.72 113.441 70.72C106.921 70.72 102.181 68.9 99.2206 65.26C96.3006 61.62 94.8406 56.32 94.8406 49.36C94.8406 34.64 101.041 27.28 113.441 27.28ZM147.188 57.04L147.128 64.24L151.268 64.78C151.268 66.42 150.808 68.16 149.888 70H135.308L134.768 66.7C137.008 65.78 138.688 65.2 139.808 64.96C139.808 64.84 139.628 54.26 139.268 33.22L134.288 31.66L134.768 28H150.308C150.948 29.08 151.328 30.66 151.448 32.74C149.408 33.06 148.068 33.26 147.428 33.34L147.248 46.9L159.068 33.34L155.288 32.74C155.288 31.54 155.648 29.96 156.368 28H171.968C172.208 29.44 172.368 30.66 172.448 31.66C170.328 32.46 168.668 32.98 167.468 33.22L156.488 47.5L168.608 64.18L173.948 64.72C173.948 66.4 173.488 68.16 172.568 70H163.988L151.628 52.24L147.188 57.04Z" fill="black"/>
<path d="M29.64 121.24C34.28 121.24 36.6 119.26 36.6 115.3C36.6 113.62 35.72 112.2 33.96 111.04C32.68 110.16 30.92 109.22 28.68 108.22C26.48 107.18 24.82 106.36 23.7 105.76C22.62 105.16 21.36 104.32 19.92 103.24C17.16 101.12 15.78 98.48 15.78 95.32C15.78 92.16 17 89.54 19.44 87.46C21.92 85.34 25.26 84.28 29.46 84.28C33.66 84.28 38.14 85.62 42.9 88.3C42.9 91.18 42.6 94.3 42 97.66C40.72 98.06 38.82 98.26 36.3 98.26L34.56 91.12C33.08 90.68 31.46 90.46 29.7 90.46C27.94 90.46 26.58 90.84 25.62 91.6C24.66 92.36 24.18 93.5 24.18 95.02C24.18 96.5 24.92 97.84 26.4 99.04C27.92 100.2 29.74 101.28 31.86 102.28C33.98 103.24 35.44 103.92 36.24 104.32C37.04 104.72 38.06 105.32 39.3 106.12C40.54 106.92 41.48 107.68 42.12 108.4C43.76 110.32 44.58 112.46 44.58 114.82C44.58 118.98 43.2 122.18 40.44 124.42C37.68 126.66 34.08 127.78 29.64 127.78C27.28 127.78 24.68 127.38 21.84 126.58C19.04 125.74 16.66 124.68 14.7 123.4C14.78 120.96 15.1 117.66 15.66 113.5C17.26 113.18 19.18 113.02 21.42 113.02L22.68 120.22C24.88 120.9 27.2 121.24 29.64 121.24ZM66.1945 121.36C72.8345 121.36 76.1545 116.26 76.1545 106.06C76.1545 95.86 72.8345 90.76 66.1945 90.76C63.3145 90.76 60.7945 91.2 58.6345 92.08C56.7945 95.92 55.8745 100.38 55.8745 105.46C55.8745 110.5 56.6345 114.42 58.1545 117.22C59.6745 119.98 62.3545 121.36 66.1945 121.36ZM66.1945 84.28C72.8745 84.28 77.5745 86.04 80.2945 89.56C83.0145 93.04 84.3745 98.38 84.3745 105.58C84.3745 110.1 83.7945 113.96 82.6345 117.16C81.4745 120.36 79.5145 122.92 76.7545 124.84C73.9945 126.76 70.4745 127.72 66.1945 127.72C59.6745 127.72 54.9345 125.9 51.9745 122.26C49.0545 118.62 47.5945 113.32 47.5945 106.36C47.5945 91.64 53.7945 84.28 66.1945 84.28ZM116.382 114.76L121.902 85H137.502C137.822 86.72 137.982 87.94 137.982 88.66C136.062 89.34 134.402 89.86 133.002 90.22L137.262 121.24L141.402 121.78C141.402 123.42 140.942 125.16 140.022 127H125.442L124.902 123.7C127.142 122.78 128.822 122.2 129.942 121.96L125.322 97.48L119.202 124.06H113.082L103.602 94.72L98.5022 121.24L102.642 121.78C102.642 123.42 102.182 125.16 101.262 127H86.6822L86.1422 123.7C88.3822 122.78 90.0622 122.2 91.1822 121.96L95.4422 90.22L90.4622 88.66L90.9422 85H107.742L115.782 114.76H116.382ZM158.483 91C158.483 95.56 158.443 99.48 158.363 102.76H164.483L165.083 98.62C167.123 98.62 169.103 99.12 171.023 100.12V112.12L167.063 112.3C166.103 110.86 165.543 109.6 165.383 108.52H158.303C158.223 114.12 158.183 118.34 158.183 121.18H168.443L169.763 115.96C172.243 115.96 174.123 116.08 175.403 116.32C176.003 118.6 176.303 120.68 176.303 122.56C176.303 124.4 176.243 125.88 176.123 127H146.363L145.823 123.7C148.423 122.7 150.103 122.12 150.863 121.96C150.823 119.6 150.783 116.28 150.743 112C150.583 102.4 150.443 95.14 150.323 90.22L145.343 88.66L145.823 85H175.283C175.403 86.08 175.463 87.44 175.463 89.08C175.463 90.68 175.163 92.92 174.563 95.8C173.323 96.2 171.443 96.4 168.923 96.4L167.543 91H158.483Z" fill="black"/>
</svg>
